<svg width="276" height="276" viewBox="0 0 276 276" fill="none" xmlns="http://www.w3.org/2000/svg">
<path d="M204.835 258.793C203.809 259.336 203.895 259.509 204.878 259.009C205.197 258.879 205.465 258.698 205.698 258.483C205.698 258.301 205.698 258.301 204.835 258.793ZM206.905 257.672C206.414 258.077 206.413 258.077 207 257.81C207.31 257.629 207.587 257.456 207.587 257.404C207.587 257.172 207.449 257.223 206.905 257.672ZM208.251 256.861C207.759 257.266 207.759 257.266 208.346 256.999C208.665 256.818 208.932 256.628 208.932 256.585C208.932 256.369 208.794 256.413 208.251 256.861ZM209.613 256.059C209.122 256.464 209.122 256.464 209.691 256.188C210.01 256.016 210.277 255.835 210.277 255.783C210.277 255.567 210.139 255.61 209.613 256.059ZM211.451 254.843C210.51 255.472 210.183 255.878 211.045 255.429C211.623 255.076 212.606 254.299 212.434 254.299C212.063 254.437 211.752 254.67 211.442 254.843H211.451ZM128.97 0.0947661C128.34 0.137891 126.451 0.310391 124.795 0.448391C85.5686 4.00189 48.8693 25.1159 25.6076 57.6408C12.7478 75.4686 4.39875 96.1773 1.25062 117.921C0.138 125.511 0 127.753 0 138.043C0 148.324 0.138 150.532 1.25062 158.122C8.763 209.967 45.6435 253.489 95.634 269.617C104.63 272.49 114.057 274.473 124.795 275.689C128.97 276.138 147.022 276.138 151.196 275.689C169.757 273.619 185.429 269.04 200.937 261.13C203.317 259.923 203.766 259.604 203.446 259.336C195.856 249.323 188.405 239.301 180.944 229.192L158.89 199.41L131.264 158.484C122.052 144.788 112.806 131.126 103.414 117.567C103.319 117.567 103.198 135.757 103.146 157.941C103.051 196.797 103.051 198.375 102.56 199.272C102.068 200.35 101.257 201.247 100.179 201.747C99.3255 202.153 98.5579 202.239 94.4783 202.239H89.8121L88.596 201.48C87.837 200.988 87.2074 200.307 86.802 199.505L86.2155 198.289L86.2586 144.201L86.3535 90.1139L87.2074 89.0358C87.7508 88.3716 88.4235 87.8283 89.1825 87.4229C90.3124 86.8795 90.7609 86.7933 95.427 86.7933C100.904 86.7933 101.809 87.0089 103.25 88.5873C114.428 105.251 125.571 121.957 136.534 138.716C154.465 165.902 178.943 202.998 190.975 221.197L212.856 254.308L213.935 253.592C224.448 246.58 234.014 238.231 242.268 228.709C259.656 208.803 270.937 184.316 274.758 158.182C275.871 150.592 276.009 148.341 276.009 138.06C276.009 127.771 275.871 125.571 274.758 117.981C267.246 66.1364 230.365 22.6146 180.375 6.47727C171.025 3.51889 161.408 1.50064 151.671 0.465641C149.057 0.198266 131.221 -0.120859 128.978 0.112016L128.97 0.0947661ZM185.438 83.5589C186.74 84.1799 187.723 85.3529 188.172 86.6984C188.404 87.4229 188.448 102.422 188.404 136.206L188.31 184.713L179.779 171.603L171.198 158.484V123.268C171.198 100.438 171.293 87.6385 171.413 87.0089C171.819 85.5685 172.802 84.361 174.113 83.602C175.182 83.0586 175.596 83.0155 179.866 83.0155C183.859 83.0155 184.54 83.0586 185.438 83.5589Z" fill="white"/>
</svg>
